inDegrees=no
num_controls=7
num_derivatives=13
num_iterations=79
num_multipliers=7
num_parameters=0
num_slacks=7
num_states=26
objective=0.448884
objective_accelerations=0.048593
objective_balance=0.006877
objective_effort=0.035196
objective_height=0.353285
objective_ligament=0.004933
solver_duration=1169.694429
status=Solve_Succeeded
success=true
DataType=double
version=3
OpenSimVersion=4.5
endheader
time	/jointset/ground_pelvis/pelvis_tilt/value	/jointset/ground_pelvis/pelvis_tx/value	/jointset/ground_pelvis/pelvis_ty/value	/jointset/hip_l/hip_flexion_l/value	/jointset/hip_l/hip_adduction_l/value	/jointset/hip_l/hip_rotation_l/value	/jointset/back/lumbar_extension/value	/jointset/patellofemoral_l/patellar_flexion_l/value	/jointset/knee_l/knee_flexion_l/value	/jointset/knee_l/knee_adduction_l/value	/jointset/knee_l/knee_rotation_l/value	/jointset/ankle_l/ankle_angle_l/value	/jointset/subtalar_l/subtalar_angle_l/value	/jointset/ground_pelvis/pelvis_tilt/speed	/jointset/ground_pelvis/pelvis_tx/speed	/jointset/ground_pelvis/pelvis_ty/speed	/jointset/hip_l/hip_flexion_l/speed	/jointset/hip_l/hip_adduction_l/speed	/jointset/hip_l/hip_rotation_l/speed	/jointset/back/lumbar_extension/speed	/jointset/patellofemoral_l/patellar_flexion_l/speed	/jointset/knee_l/knee_flexion_l/speed	/jointset/knee_l/knee_adduction_l/speed	/jointset/knee_l/knee_rotation_l/speed	/jointset/ankle_l/ankle_angle_l/speed	/jointset/subtalar_l/subtalar_angle_l/speed	/forceset/tau_hip_flexion_l	/forceset/tau_hip_adduction_l	/forceset/tau_hip_rotation_l	/forceset/tau_knee_flexion_l	/forceset/tau_ankle_angle_l	/forceset/tau_subtalar_angle_l	/forceset/tau_lumbar_extension	lambda_cid13_p0	lambda_cid13_p1	lambda_cid13_p2	lambda_cid13_p3	lambda_cid13_p4	lambda_cid13_p5	lambda_cid14_p0	/jointset/ground_pelvis/pelvis_tilt/accel	/jointset/ground_pelvis/pelvis_tx/accel	/jointset/ground_pelvis/pelvis_ty/accel	/jointset/hip_l/hip_flexion_l/accel	/jointset/hip_l/hip_adduction_l/accel	/jointset/hip_l/hip_rotation_l/accel	/jointset/back/lumbar_extension/accel	/jointset/patellofemoral_l/patellar_flexion_l/accel	/jointset/knee_l/knee_flexion_l/accel	/jointset/knee_l/knee_adduction_l/accel	/jointset/knee_l/knee_rotation_l/accel	/jointset/ankle_l/ankle_angle_l/accel	/jointset/subtalar_l/subtalar_angle_l/accel	gamma_cid13_p0	gamma_cid13_p1	gamma_cid13_p2	gamma_cid13_p3	gamma_cid13_p4	gamma_cid13_p5	gamma_cid14_p0
1	-0.6127545236872858	-0.1104803655688778	0.6038688311420514	1.89635687390971	-0.2919324666114343	0.1481589540092445	-0.4362298361584901	1.22698838612519	1.226988386125232	-0.1740520532608114	0.1743498383124435	0.1428876017192045	-0.01434005400191923	-0.006482183092158702	0.001537986941551349	-0.00275798292243592	0.01200280113993796	0.001533461737696561	0.001516741986922509	0.0006220632350202256	0.01002492529396336	0.01002492529396429	0.002961245350807447	0.0001807610564836094	0.005337899788457575	0.002796535328207243	-0.4168188769701407	0.03167888663595445	-0.01807006434661588	-0.2677864974908725	0.1140506948158267	0.005064373201827315	0.3409082890996051	-9.997453953026596	0.4535803769377368	-1.505668074469622	10.24570684894516	-724.8681440603372	-24.24348559753545	-0.3908540868862777	1.748562575772849	0.199055741607868	1.665315768051149	-6.097595373878079	-0.3670316519898259	-1.758262190358462	-0.1402036654205064	-4.745204239895836	-4.74520423989577	0.02153895703469947	-0.03448548633233986	-0.6694858609649047	-0.5026264741289586	1.154483982936001e-09	7.215959488265267e-09	-2.164038485317873e-09	-5.985359565734209e-10	1.479911217590908e-09	2.856811730876571e-09	9.939398948591663e-10
1.01	-0.6127331478326289	-0.1104551066510727	0.6039243220716173	1.896173517693833	-0.2919350611454429	0.1480845707461874	-0.4362290542328874	1.226851599891415	1.226851599891454	-0.1740192377126436	0.1743501147539723	0.1429074871220524	-0.0143367422509759	0.01069695108560531	0.003511910755945592	0.01384573085116709	-0.04860623193945646	-0.002092073121775634	-0.01645426032568461	-0.0003793266210976187	-0.03738484822313182	-0.03738484822313096	0.003594215570306289	-4.124660061996426e-05	-0.001386194236434955	-0.002184802346216293	-0.4168026150979414	0.03169803389148192	-0.01808189646497979	-0.2676554960304912	0.1139434685770096	0.005073375212393315	0.3409585898667232	-10.02343575830577	0.4534764441073991	-1.504802173985176	10.2329223163427	-724.7591953845566	-24.23059832097996	-0.3924671977209971	1.693527346089628	0.1962776206228471	1.656332164531576	-6.032386608503836	-0.3662692510732571	-1.825656308024298	-0.06715392174671596	-4.739263773642716	-4.739263773642903	0.08302242120399912	-0.003428237321899205	-0.6776787057007096	-0.5034768761923588	-6.250583348409371e-09	-2.693500123229216e-08	1.085619550566141e-08	-1.001806374057145e-09	-6.518087842614589e-09	1.796580475712648e-08	-7.712015495062595e-09
1.02	-0.6125417929347312	-0.1104101651112708	0.6041455367354246	1.895386105280449	-0.2919751019976802	0.1478286500487799	-0.4362356956610569	1.226240635949257	1.226240635949321	-0.1739803231888387	0.1743506971525744	0.1428593700781611	-0.01438476176919567	0.02751362555583714	0.00547451134091968	0.0303867639255332	-0.1088084383601985	-0.005955801907146082	-0.03479074489077905	-0.0008626075187710145	-0.08481061638127162	-0.08481061638127216	0.004181040461674501	0.0002419524653708086	-0.008262589559295597	-0.00746971850436334	-0.4167863532257551	0.03171718114705126	-0.01809372858366633	-0.2675244945700728	0.1138362423382168	0.005082377223013409	0.341008890633818	-10.05611423716669	0.4544658361168475	-1.504020055646206	10.24831066080114	-724.7404768767202	-24.18478212030536	-0.3998862892000188	1.676070634266426	0.1967910957238256	1.652779628203765	-6.016230042147583	-0.4146704371694692	-1.831358640855918	-0.03658187373165042	-4.748403168104756	-4.748403168104957	0.01230989140857822	0.06655585828651554	-0.6999461205585467	-0.5633421708736573	-8.408986261627915e-09	-1.530747934401983e-08	6.176777029153294e-08	7.042981678308695e-09	-1.264822796456e-08	4.887204940163741e-08	-1.347455236828897e-08
1.03	-0.6121833585551528	-0.1103455806123632	0.604531886428082	1.89399805321297	-0.2920543989072161	0.1473891561283696	-0.4362454069871451	1.22515545510795	1.225155455108056	-0.1739363783082921	0.1743552471553787	0.1427420068035015	-0.01448643424407134	0.04418368220074281	0.007447694409531627	0.04687643829261828	-0.168797844342361	-0.009885972568551808	-0.05300433579592897	-0.001074168285777147	-0.1322169223744301	-0.1322169223744374	0.004537353220179806	0.000611267085288042	-0.0152079206640395	-0.01284395164919364	-0.4165321816354776	0.03189143468183286	-0.01810874318236366	-0.2673237006194893	0.1138721202555231	0.005128928386778457	0.3408942265431729	-10.02613610964516	0.4235848772592403	-1.492911761257742	10.16319839760773	-724.5078189059179	-24.18434711714283	-0.4133579324273494	1.664037344210689	0.1983808918045377	1.64604710502078	-5.989677339156088	-0.3795645654891056	-1.8008184076581	-0.01261976646787017	-4.73544601287422	-4.735446012875189	0.03670111904006421	0.01357622516525284	-0.6915023760402557	-0.5213533223247144	-1.051385178282472e-08	-3.212830082187762e-09	1.130659914120465e-07	1.517397440893835e-08	-1.875930830142113e-08	7.993949049123272e-08	-1.92070543586919e-08
1.04	-0.6116579107762014	-0.110261104486895	0.6050829300172242	1.892010230793113	-0.2921724723603397	0.1467706344804424	-0.4362570692385502	1.223596470867119	1.223596470867253	-0.1738909884699504	0.1743617816966438	0.1425552550636731	-0.0146412269376029	0.06091630542999173	0.009452836653025423	0.06332554322220883	-0.2287625088407299	-0.01371111062446468	-0.07059629039361695	-0.001252792584077751	-0.1795712962856937	-0.179571296285707	0.004470032017428514	0.0006388601580392065	-0.02214028259309989	-0.01809376223549836	-0.4162780100450671	0.03206568821659778	-0.01812375778120923	-0.2671229066689118	0.113907998172802	0.005175479550518834	0.3407795624526777	-10.00293636847683	0.3937122671451675	-1.481760297841963	10.10680224814964	-724.366025359542	-24.15063921683369	-0.433174671133765	1.688583951135094	0.2031829307001811	1.644665740704857	-6.011281745388838	-0.3936639160708899	-1.707031379363532	-0.02999457999058316	-4.738016751725787	-4.738016751725819	-0.07241690084272755	-0.001788451146713318	-0.6973522854218667	-0.5384576591685362	-1.5701123711294e-08	-1.768448734137432e-08	1.394476916120575e-07	1.871686125746464e-08	-2.643416146749254e-08	9.964617876698063e-08	-2.607224370558412e-08
1.05	-0.6109646883265015	-0.1101563459145491	0.6057982535544124	1.889422722151721	-0.2923284806578783	0.1459787660201876	-0.4362702483578719	1.221564232897822	1.221564232897865	-0.173848266031039	0.1743674875175806	0.1422992044436425	-0.01484813614306846	0.07775307308649995	0.0115113998709236	0.07973175988981965	-0.28875280336628	-0.01749441365492326	-0.08772356959333778	-0.001367939872420315	-0.2268651315750259	-0.2268651315750311	0.004012057117896893	0.0005042272683988725	-0.02907163860386836	-0.02329195470766202	-0.41600946028034	0.03230328524119909	-0.01817561981598918	-0.2668119944392838	0.1140420184436696	0.005273941496763226	0.3407383704872262	-9.93995344060963	0.3299366428633183	-1.460186602391458	9.936314791138681	-724.174480169936	-24.1515848008965	-0.4598437674701978	1.684954752983555	0.2090757831115263	1.637482071307578	-5.994943435862764	-0.3712633730921298	-1.707528265060715	-1.109230266570357e-05	-4.72338535347438	-4.723385353473251	-0.04185848175986327	-0.01905086890959274	-0.6912948084687146	-0.5110957089260855	-2.098472083999053e-08	-3.298634167934256e-08	1.650507505333029e-07	2.211636979717522e-08	-3.415788253447677e-08	1.189978435172959e-07	-3.297282953236663e-08
1.06	-0.6101023518842165	-0.1100306251568693	0.6066774157465825	1.886234902539131	-0.2925224419610338	0.1450172343529535	-0.436284126207868	1.219059392888445	1.219059392888368	-0.1738119974806851	0.1743718969773849	0.1419737867535923	-0.01510714640679298	0.09473910394602508	0.01364527371979297	0.09609327421827757	-0.3488247030808024	-0.02130171174771193	-0.1045289317844402	-0.001392538722608543	-0.2740917043018468	-0.2740917043018439	0.003179254328295343	0.0003795879372742557	-0.03601369659720936	-0.02851397388725287	-0.4157409105156081	0.03254088226573336	-0.01822748185014983	-0.2665010822096947	0.1141760387145166	0.005372403442924123	0.3406971785217877	-9.88379501812487	0.2672056492328209	-1.438607762474109	9.794047709641848	-724.0746203338983	-24.11905850691004	-0.4939771833899785	1.71843659173851	0.2182450568944005	1.635725272874274	-6.027602783183313	-0.3984629285369016	-1.642647977639847	-0.01188489235969788	-4.724564239223517	-4.724564239223538	-0.1473824788566931	0.0002102605564043942	-0.6994926819364014	-0.54322300065396	-2.274303809814943e-08	-4.012775626789296e-08	1.73069170753811e-07	2.255010509928735e-08	-3.750634443904547e-08	1.25241331120055e-07	-3.546164575790154e-08
1.07	-0.6090697947950039	-0.1098831595793524	0.607719871321175	1.882446483604996	-0.2927541742894492	0.1438885818524578	-0.4362969927471192	1.216082794775335	1.216082794775281	-0.1737847141441783	0.1743749380544614	0.1415789880641481	-0.01541798957964975	0.1117585164387306	0.01586340176014266	0.1123806376332824	-0.408819876676341	-0.02500513682442904	-0.1212227549341306	-0.001084838871133799	-0.3211988317265118	-0.3211988317265141	0.002345215587222649	0.0002152513442966816	-0.04293766873532617	-0.0336062830120399	-0.4154900272916979	0.03292217727038031	-0.01831309596130276	-0.2659531541054502	0.1142689359377817	0.005546148280837502	0.3407771808803661	-9.826766307848549	0.165927265714169	-1.404373074828021	9.555722515549038	-723.8479296718177	-24.12919349374744	-0.5364100141416579	1.691621796804877	0.2259352431325015	1.622653247243874	-5.979596722121721	-0.3503607714528355	-1.685958822468996	0.06648696231253137	-4.699416429984106	-4.699416429985017	-0.04125809047554181	-0.02680439979856235	-0.6875918137877408	-0.4849920283768136	-2.431384046957758e-08	-4.683510491232533e-08	1.801522378519393e-07	2.282608650578251e-08	-4.062207979242182e-08	1.307875752575186e-07	-3.771579338762538e-08
1.08	-0.6078674579371027	-0.1097130450083271	0.6089246828042056	1.878059288520026	-0.293021756563475	0.1425923492526777	-0.4363039043801418	1.212635999500798	1.212635999500749	-0.1737637398989331	0.1743759260094646	0.1411152011865161	-0.01577830727575168	0.1286950576821847	0.01817507242146429	0.1285644559056169	-0.4685799332471732	-0.02847170086967676	-0.1380449516372411	-0.000201557483182564	-0.3681311365870107	-0.3681311365870182	0.001917436096421417	-3.103647163767339e-05	-0.049811334234976	-0.03840887853625128	-0.4152391440678239	0.03330347227496627	-0.01839871007188338	-0.2654052260012333	0.1143618331610379	0.005719893118677156	0.3408571832389106	-9.77658811855815	0.06558298457525361	-1.36998415428905	9.34399470362054	-723.7136387745359	-24.1075937920044	-0.5880214891376129	1.701862341888294	0.2369535810887587	1.615016244340208	-5.980579378242009	-0.3510907222430074	-1.668322688323867	0.1032314149357478	-4.6895997263903	-4.689599726390314	-0.06613062880237812	-0.01617998403499865	-0.6894313542430506	-0.4852802805388087	-2.904109914494698e-08	-6.163425420116285e-08	2.063635416843375e-07	2.505535884122481e-08	-4.744126927624825e-08	1.493970663565945e-07	-4.458820252197481e-08
